<svg xmlns="http://www.w3.org/2000/svg" width="300" height="300" preserveAspectRatio="xMidYMid meet" version="1.0" viewBox="0 0 225 225"><g fill="#000" stroke="none"><path fill="currentColor" d="M0 1125 l0 -1125 1125 0 1125 0 0 1125 0 1125 -1125 0 -1125 0 0 -1125z m1062 278 l3 -408 60 0 60 0 3 408 2 407 155 0 155 0 0 -695 0 -695 -155 0 -155 0 0 124 c0 68 -3 131 -6 140 -9 23 -109 23 -118 0 -3 -9 -6 -72 -6 -140 l0 -124 -155 0 -155 0 0 695 0 695 155 0 155 0 2 -407z" transform="translate(0.000000,225.000000) scale(0.100000,-0.100000)"/></g></svg>