<svg xmlns="http://www.w3.org/2000/svg" width="2138.667" height="2138.667" preserveAspectRatio="xMidYMid meet" version="1.0" viewBox="0 0 1604 1604"><g fill="#000" stroke="none"><path fill="currentColor" d="M5530 15223 c-63 -1 -457 -7 -875 -13 -808 -11 -1613 -27 -1860 -35 -624 -22 -689 -26 -733 -47 -131 -62 -455 -331 -755 -627 -592 -583 -1165 -1315 -1287 -1643 -21 -56 -21 -68 -18 -570 l4 -513 27 -100 c136 -486 474 -898 923 -1124 298 -150 606 -186 940 -112 475 106 898 438 1113 876 84 169 127 315 156 520 7 49 8 47 30 -80 30 -174 65 -285 131 -423 243 -513 727 -862 1276 -922 612 -65 1187 217 1515 745 109 175 190 392 219 589 10 64 21 111 24 104 4 -7 12 -49 19 -93 31 -195 136 -453 254 -623 315 -456 836 -731 1382 -731 478 0 941 211 1258 573 101 116 165 211 235 351 81 162 115 270 158 510 6 36 9 29 25 -75 133 -853 890 -1441 1737 -1350 549 60 1033 409 1276 922 66 138 101 249 131 423 22 127 23 129 30 80 52 -373 191 -663 443 -926 223 -234 518 -401 826 -470 454 -101 871 5 1260 320 271 219 492 542 585 856 57 195 61 236 61 716 l0 447 -26 68 c-122 329 -620 976 -1213 1577 -376 381 -777 708 -884 721 -23 3 -233 10 -467 16 -234 6 -553 15 -710 20 -157 6 -526 15 -820 20 -294 6 -749 15 -1010 20 -393 8 -5003 11 -5380 3z" transform="translate(0.000000,1604.000000) scale(0.100000,-0.100000)"/><path fill="currentColor" d="M6306 10750 c-129 -208 -333 -416 -551 -562 -157 -104 -362 -195 -555 -246 -174 -47 -257 -56 -475 -56 -188 1 -223 4 -340 28 -417 86 -778 291 -1040 589 -51 57 -193 255 -209 291 -3 7 -10 4 -18 -8 -228 -342 -551 -613 -908 -765 -91 -39 -294 -97 -410 -117 -122 -21 -357 -24 -423 -5 -26 8 -50 11 -53 9 -3 -3 -12 -82 -20 -174 -12 -146 -21 -259 -48 -659 -40 -575 -47 -939 -49 -2740 -1 -1304 1 -1811 11 -1990 7 -132 17 -330 23 -440 6 -109 12 -213 14 -230 2 -16 6 -73 10 -125 8 -125 42 -476 55 -565 6 -38 17 -122 25 -185 94 -698 286 -1268 511 -1518 38 -41 43 -44 159 -68 579 -123 1373 -224 2260 -289 110 -8 223 -17 250 -20 28 -2 104 -7 170 -10 66 -3 143 -8 170 -10 64 -6 192 -13 370 -20 77 -3 172 -8 210 -10 39 -2 194 -9 345 -14 151 -6 428 -16 615 -23 467 -18 2753 -18 3220 0 187 7 464 17 615 23 151 5 307 12 345 14 39 2 133 7 210 10 177 7 306 14 370 20 28 2 106 7 175 10 69 3 145 8 170 10 25 3 135 12 245 20 880 64 1680 166 2260 289 116 24 121 27 159 68 85 93 197 292 262 466 100 263 200 685 248 1047 9 66 21 152 26 190 5 39 14 120 20 180 6 61 13 124 15 140 3 17 10 95 16 175 5 80 12 165 14 188 2 24 9 132 14 240 6 109 16 305 23 437 17 309 15 3612 -2 3990 -21 483 -30 681 -35 740 -3 33 -12 157 -20 275 -21 298 -43 551 -49 558 -3 2 -27 -1 -53 -9 -66 -19 -301 -16 -423 5 -323 56 -620 191 -875 395 -142 114 -337 329 -443 487 -8 12 -15 15 -18 8 -16 -36 -158 -234 -209 -291 -267 -303 -653 -518 -1065 -594 -176 -32 -472 -33 -640 -1 -269 52 -500 144 -713 286 -193 129 -400 337 -525 529 -29 45 -55 83 -56 85 -2 1 -37 -48 -79 -110 -279 -415 -716 -698 -1217 -789 -108 -20 -159 -23 -375 -23 -216 0 -267 3 -375 23 -243 44 -518 155 -721 292 -206 138 -417 356 -527 546 -21 34 -40 63 -43 63 -3 0 -23 -27 -43 -60z m-793 -1696 c375 -52 648 -193 962 -496 114 -110 124 -117 156 -113 86 11 418 37 659 50 503 28 1406 16 1835 -25 61 -6 155 -14 210 -19 l100 -9 120 117 c316 304 585 442 971 497 181 25 647 26 769 0 504 -104 930 -462 1293 -1086 153 -263 343 -700 410 -940 12 -41 46 -163 76 -270 30 -107 71 -256 91 -330 21 -74 60 -213 87 -308 27 -96 71 -254 98 -353 28 -98 73 -261 101 -361 28 -101 55 -196 59 -213 4 -16 31 -113 60 -215 50 -177 135 -483 167 -600 120 -440 176 -782 176 -1075 0 -295 -45 -469 -161 -624 -112 -148 -310 -244 -584 -282 -128 -17 -641 -20 -773 -4 -748 92 -1364 512 -1668 1137 -112 232 -168 433 -194 695 -16 166 -17 172 -37 168 -126 -28 -835 -111 -1116 -130 -47 -3 -141 -10 -210 -15 -212 -17 -886 -40 -1155 -40 -269 0 -943 23 -1155 40 -69 5 -163 12 -210 15 -291 20 -987 101 -1116 130 -20 4 -21 -2 -37 -168 -32 -333 -136 -636 -309 -900 -344 -524 -880 -845 -1558 -932 -126 -16 -641 -13 -768 4 -274 38 -472 134 -584 282 -117 156 -161 327 -161 624 0 293 56 635 176 1075 32 117 117 423 167 600 29 102 56 199 60 215 4 17 31 113 60 215 28 102 71 255 95 340 23 85 66 238 95 340 29 102 56 199 60 215 4 17 27 98 50 180 23 83 46 164 50 180 88 330 139 492 207 665 126 318 312 675 473 905 343 491 770 782 1225 835 105 13 551 2 678 -16z" transform="translate(0.000000,1604.000000) scale(0.100000,-0.100000)"/><path fill="currentColor" d="M7844 7383 c-723 -677 -1327 -1315 -1488 -1571 -15 -24 -25 -46 -22 -49 3 -4 142 -1 308 6 167 7 374 15 461 18 l157 6 0 -405 c0 -365 2 -407 17 -419 13 -11 65 -13 272 -10 141 3 351 5 466 5 116 0 325 -2 466 -5 207 -3 259 -1 272 10 15 12 17 54 17 419 l0 405 158 -6 c86 -3 293 -11 460 -18 166 -7 305 -9 308 -6 14 14 -153 236 -315 417 -214 239 -558 593 -856 881 -168 162 -450 427 -491 462 -21 18 -24 16 -190 -140z" transform="translate(0.000000,1604.000000) scale(0.100000,-0.100000)"/></g></svg>